<?xml version="1.0" encoding="UTF-8"?>
<svg version="1.1" xmlns="http://www.w3.org/2000/svg" width="1512" height="1617">
<path d="M0 0 C498.96 0 997.92 0 1512 0 C1512 533.61 1512 1067.22 1512 1617 C1013.04 1617 514.08 1617 0 1617 C0 1083.39 0 549.78 0 0 Z " fill="#FEFEFE" transform="translate(0,0)"/>
<path d="M0 0 C1.0401123 -0.0054483 2.08022461 -0.01089661 3.15185547 -0.01651001 C15.46730619 -0.06448818 27.31674239 0.43713963 39.5 2.25 C41.39465134 2.46263309 43.29044981 2.66542376 45.1875 2.85546875 C73.16789969 5.8450056 100.98336374 12.72347409 127.6875 21.5 C128.43692871 21.7462915 129.18635742 21.99258301 129.95849609 22.24633789 C133.13084305 23.32199313 135.69570499 24.38047 138.5 26.25 C140.48982813 26.94643985 142.49294757 27.604876 144.5 28.25 C153.12695838 31.03671508 161.0902494 34.86687105 169.11865234 39.02246094 C171.68277168 40.3442153 174.25710298 41.64475084 176.83203125 42.9453125 C196.17986333 52.7903818 214.72170742 63.57295247 231.83642578 76.96728516 C234.23761263 78.81874329 236.71231894 80.56176217 239.1875 82.3125 C249.24208424 89.60169784 258.40086918 97.9637757 267.4609375 106.43359375 C270.02787191 108.8288135 272.66085919 111.13615957 275.3125 113.4375 C286.35171586 123.340326 296.3674427 134.58248654 305.5 146.25 C306.35311953 147.31203992 307.20734657 148.37319084 308.0625 149.43359375 C337.40816499 186.01423774 359.01803982 227.07940059 374.5 271.25 C374.79213379 272.06114258 375.08426758 272.87228516 375.38525391 273.70800781 C383.1054172 295.25198419 388.20372525 318.98975938 390.83284283 341.70892715 C391.25695719 345.32812011 391.73825041 348.93280801 392.26024342 352.53905869 C395.42295044 375.94352596 394.90830093 399.4643173 394.84821819 423.03088456 C394.83635046 428.89295544 394.83898823 434.75501116 394.84104129 440.61709113 C394.84474078 452.51507383 394.83499957 464.41300633 394.81672668 476.31097412 C394.79206345 492.39857371 394.78640839 508.48610003 394.78381348 524.57373047 C394.76810208 563.21583045 394.72621838 601.85791622 394.6875 640.5 C394.625625 726.8775 394.56375 813.255 394.5 902.25 C132.48 902.25 -129.54 902.25 -399.5 902.25 C-399.561875 817.3575 -399.62375 732.465 -399.6875 645 C-399.71481201 618.23229492 -399.74212402 591.46458984 -399.77026367 563.88574219 C-399.78381348 531.10400391 -399.78381348 531.10400391 -399.78633118 515.73907471 C-399.78929955 504.34721718 -399.80217688 492.95541549 -399.82002028 481.56357547 C-399.83802826 469.90708191 -399.84424334 458.25062496 -399.84033485 446.59411807 C-399.83854327 440.28550583 -399.84119417 433.97699453 -399.85764539 427.66840124 C-399.94242364 393.46577133 -399.50911379 359.55573531 -392.99853516 325.84960938 C-392.51847989 323.34636329 -392.07388218 320.83916754 -391.63671875 318.328125 C-385.57133525 284.58836382 -373.59930208 251.92452775 -358.5 221.25 C-358.05043945 220.3317041 -357.60087891 219.4134082 -357.13769531 218.46728516 C-346.6210379 197.18060386 -333.83637718 177.15886861 -319.5 158.25 C-319.01015625 157.60321289 -318.5203125 156.95642578 -318.015625 156.29003906 C-312.86018843 149.52352856 -307.54119284 142.97963792 -301.765625 136.7265625 C-300.52835012 135.37409306 -299.29853479 134.01400295 -298.10839844 132.61987305 C-292.98299222 126.62389465 -287.46945345 121.03332094 -281.89501953 115.4597168 C-280.26172552 113.82424118 -278.6366153 112.18092292 -277.01171875 110.53710938 C-270.48553899 103.97631453 -263.76323373 97.99667654 -256.5 92.25 C-255.4375626 91.36289754 -254.37917422 90.47087874 -253.328125 89.5703125 C-233.3814568 72.5854223 -210.7583172 56.85403808 -187.109375 45.51953125 C-183.90012119 43.9581428 -180.81558781 42.21773663 -177.73046875 40.42578125 C-175.35063337 39.17126207 -172.91313531 38.11609969 -170.43432617 37.07348633 C-168.42267129 36.21707942 -166.43164838 35.32296609 -164.44140625 34.41796875 C-127.49486161 17.66583493 -88.65576553 7.52347457 -48.5 2.25 C-47.02974365 2.05083984 -47.02974365 2.05083984 -45.52978516 1.84765625 C-30.42562301 -0.09879867 -15.20253949 0.04886203 0 0 Z " fill="#ED2027" transform="translate(726.5,389.75)"/>
<path d="M0 0 C1.49671547 -0.0035743 2.99342758 -0.00890161 4.49013141 -0.01580173 C8.58074644 -0.02963571 12.67096975 -0.01878136 16.76156634 -0.00368956 C21.22023003 0.00831101 25.67884642 -0.00302461 30.13751012 -0.0113312 C37.94451001 -0.02267915 45.75139342 -0.01922079 53.55838871 -0.00596046 C65.1675917 0.01370348 76.7767097 0.01040268 88.38592263 0.00253894 C107.91909975 -0.01000375 127.45222855 -0.00367673 146.9854002 0.01372719 C166.3300207 0.03095935 185.67461948 0.04076742 205.01924801 0.04039192 C206.82459247 0.04036899 206.82459247 0.04036899 208.66640853 0.04034559 C213.55205063 0.04026377 218.43769273 0.04013254 223.32333483 0.03993396 C269.14941784 0.03812203 314.97546778 0.05800842 360.80153931 0.08879329 C401.51971496 0.11604597 442.23786713 0.12851562 482.95605183 0.12717247 C485.5709898 0.12709165 488.18592776 0.12701093 490.80086573 0.12693031 C492.09363927 0.12688961 493.38641282 0.12684891 494.71836131 0.12680697 C501.22594988 0.12660538 507.73353845 0.12642422 514.24112701 0.12626648 C515.52496293 0.12623305 516.80879885 0.12619963 518.13153889 0.12616519 C552.15325595 0.12543495 586.17497006 0.13451094 620.19668466 0.14691961 C621.40679244 0.14736015 622.61690023 0.1478007 623.86367794 0.14825459 C628.72982301 0.15003105 633.59596808 0.15180785 638.46211313 0.1536365 C655.39468295 0.15995675 672.32725046 0.16297506 689.25982139 0.16385948 C711.07766761 0.16505336 732.89549445 0.17303615 754.71333238 0.1927224 C766.25327206 0.20295509 777.79318329 0.20777022 789.33312728 0.20473003 C797.03887759 0.20326179 804.74460021 0.20906394 812.45034164 0.22081765 C816.84225823 0.22732007 821.23411517 0.23068904 825.62603464 0.22529645 C829.62390302 0.22045898 833.6216523 0.22486028 837.6195056 0.23653268 C839.05433536 0.23912615 840.48917607 0.23840561 841.92400109 0.23389947 C860.01561071 0.18167158 874.30124112 3.38139974 887.6115694 16.32199669 C888.30766315 17.0400045 889.0037569 17.75801231 889.7209444 18.49777794 C890.29328815 19.06109825 890.8656319 19.62441856 891.4553194 20.20480919 C902.224594 31.61246862 904.85259898 46.3945449 904.89794636 61.43942833 C904.90780315 62.882705 904.90780315 62.882705 904.91785908 64.35513878 C904.93746143 67.51857158 904.9492264 70.68195716 904.95922565 73.84543419 C904.96330118 74.93366415 904.96737671 76.02189411 904.97157574 77.14310074 C904.99238247 82.90512332 905.00670656 88.66712249 905.01611042 94.42917442 C905.02715402 100.34429023 905.06154631 106.25902776 905.10128212 112.17401028 C905.12757354 116.75459499 905.13581341 121.33509127 905.1393919 125.91574478 C905.14422671 128.09437612 905.15575057 130.27300435 905.17442989 132.45156097 C905.34050464 153.10674394 903.01683452 170.59951893 888.1115694 186.22043419 C884.22864527 189.91936356 880.34162802 192.78335252 875.7209444 195.49777794 C874.72517291 196.10007495 873.72940142 196.70237195 872.70345503 197.32292038 C858.36481824 204.96810209 841.86957729 203.46627609 826.10555209 203.35364129 C821.61599027 203.32941276 817.12654216 203.34623303 812.63695532 203.35768372 C804.780612 203.37214626 796.92464112 203.36078619 789.06834126 203.33221626 C777.38651629 203.28985306 765.70492459 203.28787651 754.02303681 203.29401018 C734.36938578 203.30319378 714.71589986 203.27986991 695.06229687 203.23788834 C675.60850869 203.19644029 656.15478931 203.1695209 636.7009573 203.16191864 C635.49045879 203.16143746 634.27996027 203.16095629 633.03277999 203.16046053 C626.88503309 203.15809213 620.73728614 203.15598247 614.58953912 203.15397239 C571.06810856 203.13927747 527.54676777 203.09213822 484.02538776 203.02585411 C441.75032751 202.96154259 399.47529184 202.91196734 357.20019245 202.88229942 C355.89662353 202.88137874 354.59305461 202.88045806 353.2499836 202.87950947 C340.15876578 202.87027967 327.06754778 202.861349 313.9763296 202.85263746 C287.30905166 202.83488494 260.64177532 202.81513617 233.9744997 202.79417992 C232.74843631 202.79321889 231.52237292 202.79225786 230.2591561 202.79126771 C148.41304821 202.72688519 66.56699009 202.61597136 -15.2790556 202.49777794 C-15.2790556 201.83777794 -15.2790556 201.17777794 -15.2790556 200.49777794 C-15.83850872 200.50680138 -16.39796185 200.51582481 -16.9743681 200.52512169 C-28.11714709 200.11308967 -38.38112654 194.28208351 -46.3181181 186.66965294 C-49.73697006 182.88303603 -52.55153106 178.79914822 -55.2790556 174.49777794 C-55.67995403 173.92543419 -56.08085247 173.35309044 -56.49389935 172.76340294 C-64.50842992 160.54502426 -62.7361607 143.94519183 -62.71264935 130.06027794 C-62.71721867 127.68861302 -62.72252646 125.31694942 -62.72853374 122.9452877 C-62.73743126 117.9930029 -62.73507938 113.04087965 -62.72510052 108.08859825 C-62.713605 101.7709489 -62.73384921 95.45385803 -62.76301765 89.13628197 C-62.78144025 84.24436519 -62.78107527 79.35258084 -62.77538013 74.46063805 C-62.77522772 72.13244403 -62.78120548 69.80424059 -62.79367161 67.47607994 C-62.88316793 48.02811148 -61.09166513 31.6827577 -47.1540556 16.74777794 C-33.42216093 3.94528393 -18.40258197 -0.1394866 0 0 Z " fill="#222021" transform="translate(303.27905559539795,1343.5022220611572)"/>
<path d="M0 0 C0.95898193 -0.02618408 1.91796387 -0.05236816 2.90600586 -0.0793457 C12.69555602 -0.10216123 20.77486601 3.04676215 28.265625 9.35546875 C33.95689384 15.14756716 35.74632588 21.27753663 35.9375 29.3125 C35.84681391 37.63221786 33.26908305 44.07288293 27.5859375 50.15625 C23.95590278 53.375 23.95590278 53.375 21.25 53.375 C21.25 54.035 21.25 54.695 21.25 55.375 C15.1232669 58.59644823 9.90463067 58.76219424 3.0625 58.8125 C-8.26495678 59.09929293 -18.77046402 60.65461348 -29.75 63.375 C-30.47735352 63.54483398 -31.20470703 63.71466797 -31.95410156 63.88964844 C-47.48728814 67.56986226 -62.80898933 74.64230589 -74.75 85.375 C-75.5646875 86.07238281 -76.379375 86.76976562 -77.21875 87.48828125 C-91.48586255 99.9290315 -104.11609342 115.929352 -105.94970703 135.50732422 C-106.14688645 138.49104586 -106.28120118 141.47496934 -106.40185547 144.46264648 C-106.8213874 153.91515745 -110.06095941 160.62164172 -116.75 167.375 C-124.49854569 172.96085229 -132.33285048 174.24836467 -141.75 173.375 C-149.44233249 171.59897618 -155.06709802 167.69847518 -159.75 161.375 C-168.06452254 147.59838236 -165.16411952 131.31339556 -161.75 116.375 C-159.79989883 108.73040239 -157.53008785 101.13680246 -153.6953125 94.20703125 C-152.60252608 92.0891931 -151.85774765 89.93353729 -151.0625 87.6875 C-148.40280348 80.88119 -144.05852513 75.20808018 -139.75 69.375 C-139.17121094 68.5809375 -138.59242188 67.786875 -137.99609375 66.96875 C-134.54331129 62.37613333 -130.78405434 58.07569152 -126.9375 53.8125 C-126.21651123 53.00607056 -126.21651123 53.00607056 -125.48095703 52.18334961 C-124.27977187 50.87364417 -123.01918253 49.61892517 -121.75 48.375 C-121.09 48.375 -120.43 48.375 -119.75 48.375 C-119.75 47.715 -119.75 47.055 -119.75 46.375 C-117.83173868 44.65411605 -115.91246055 43.07039967 -113.875 41.5 C-113.25004639 41.0167627 -112.62509277 40.53352539 -111.98120117 40.03564453 C-85.74552003 20.02543373 -58.04006206 8.78007788 -25.75 2.375 C-24.533125 2.1275 -23.31625 1.88 -22.0625 1.625 C-14.7426352 0.35810032 -7.4130957 0.12061946 0 0 Z " fill="#F6A2A4" transform="translate(573.75,564.625)"/>
<path d="M0 0 C8.53250046 4.77820026 15.22008959 10.0669653 18.125 19.75 C19.51537165 29.49805011 16.76815951 37.82911368 10.953125 45.68359375 C8.84159671 48.21541032 6.68566221 50.6975779 4.49853516 53.1640625 C2.12597285 55.90351589 -0.08827673 58.76483126 -2.3125 61.625 C-2.76963379 62.21007324 -3.22676758 62.79514648 -3.69775391 63.39794922 C-4.62708723 64.58740461 -5.55579672 65.77734767 -6.48388672 66.96777344 C-8.7734523 69.90105331 -11.0746469 72.82517771 -13.375 75.75 C-16.10601005 79.22310608 -18.83527541 82.69748926 -21.5546875 86.1796875 C-26.45233554 92.44387276 -31.4076603 98.65381258 -36.4375 104.8125 C-41.20513173 110.6526394 -45.85633768 116.56567467 -50.4296875 122.55859375 C-53.41066866 126.46168855 -56.45253406 130.3161781 -59.49316406 134.17285156 C-62.67390324 138.21121881 -65.82950295 142.26824468 -68.97485352 146.33422852 C-71.34189064 149.38881652 -73.72077755 152.43404136 -76.10205078 155.47753906 C-77.2793102 156.98648022 -78.45220722 158.49883555 -79.62060547 160.01464844 C-94.27033845 178.995643 -94.27033845 178.995643 -103.875 180.75 C-110.93257547 181.2676219 -116.64771182 181.23728138 -122.875 177.75 C-123.865 177.234375 -124.855 176.71875 -125.875 176.1875 C-130.8356245 172.1569926 -135.86842893 166.26164498 -136.875 159.75 C-137.80603504 147.21683595 -135.15071373 140.83269935 -127.21777344 131.38476562 C-124.46096925 128.02848183 -121.83954218 124.56416308 -119.1875 121.125 C-114.63760142 115.24875846 -110.02373847 109.43509633 -105.3125 103.6875 C-100.30141017 97.57068743 -95.46393633 91.3399697 -90.68383789 85.04150391 C-86.14450205 79.07082126 -81.47835725 73.21085157 -76.77734375 67.3671875 C-73.93049874 63.82694121 -71.11611087 60.26204145 -68.3125 56.6875 C-67.86463135 56.11652588 -67.4167627 55.54555176 -66.95532227 54.95727539 C-65.59479945 53.22184205 -64.23489618 51.48592441 -62.875 49.75 C-60.98000487 47.33267482 -59.08413176 44.91604128 -57.1875 42.5 C-56.72666016 41.91283203 -56.26582031 41.32566406 -55.79101562 40.72070312 C-53.15066923 37.36060664 -50.4912635 34.01712772 -47.8125 30.6875 C-45.19913287 27.43685686 -42.64222008 24.14983198 -40.11499023 20.83227539 C-18.42333972 -7.60066033 -18.42333972 -7.60066033 0 0 Z " fill="#ED2128" transform="translate(1157.875,201.25)"/>
<path d="M0 0 C5.84306334 4.41151282 9.80468432 9.51938713 11.34375 16.76953125 C12.47789043 26.09468592 10.23570614 33.26148197 5.21875 41.08203125 C-1.87824583 47.71617952 -10.82172137 49.85179317 -20.09375 51.83203125 C-22.0638853 52.27226751 -24.03399696 52.71261409 -26.00358582 53.1552887 C-27.45930952 53.48203816 -28.91538778 53.80721122 -30.3717804 54.13096619 C-36.62734714 55.52443582 -42.86574792 56.98570451 -49.1015625 58.46484375 C-50.62003029 58.82492271 -50.62003029 58.82492271 -52.16917419 59.192276 C-54.27542735 59.69188652 -56.38166383 60.19156734 -58.48788452 60.6913147 C-80.02823208 65.79638663 -101.60250002 70.74240049 -123.20336914 75.5847168 C-125.2736389 76.04979547 -127.34387059 76.51504365 -129.4140625 76.98046875 C-130.41564896 77.2050174 -131.41723541 77.42956604 -132.44917297 77.66091919 C-137.79970221 78.86853057 -143.13552944 80.12208094 -148.46142578 81.43432617 C-150.14569168 81.84776779 -150.14569168 81.84776779 -151.86398315 82.26956177 C-154.00277831 82.79740867 -156.1400527 83.33147347 -158.27542114 83.87301636 C-167.16176661 86.06671747 -176.76606089 87.84732864 -185.65625 84.64453125 C-193.2098788 79.92351325 -198.59280743 74.49530925 -201.2734375 65.7578125 C-202.60303955 58.85202228 -201.89205043 52.03619808 -198.65625 45.76953125 C-191.27951549 35.4520715 -183.30169888 32.30494316 -171.28125 29.70703125 C-169.55382568 29.31970825 -169.55382568 29.31970825 -167.79150391 28.92456055 C-159.97765814 27.19791571 -152.15350976 25.70674484 -144.2421875 24.5078125 C-140.57575625 23.85433977 -140.57575625 23.85433977 -136.93798828 22.34228516 C-132.86982312 20.78767595 -128.81735595 19.76562162 -124.5625 18.8671875 C-123.81270874 18.70335068 -123.06291748 18.53951385 -122.29040527 18.37071228 C-119.91353288 17.85219341 -117.53505525 17.34160199 -115.15625 16.83203125 C-112.04093055 16.15961128 -108.92642727 15.4835245 -105.8125 14.8046875 C-105.04176651 14.63695831 -104.27103302 14.46922913 -103.47694397 14.29641724 C-97.79701064 13.04884248 -92.15947039 11.66719407 -86.5243988 10.23231506 C-79.96260864 8.57137454 -73.3595056 7.12508931 -66.74221802 5.70419312 C-63.26436887 4.95711514 -59.78839666 4.2014149 -56.3125 3.4453125 C-55.30401756 3.22606865 -55.30401756 3.22606865 -54.27516174 3.00239563 C-49.0778355 1.86917188 -43.89380978 0.68758292 -38.71875 -0.54296875 C-37.44515625 -0.84332031 -36.1715625 -1.14367187 -34.859375 -1.453125 C-32.94740248 -1.91712809 -31.03924421 -2.39813337 -29.140625 -2.9140625 C-18.91927105 -5.57970337 -9.12157667 -5.72781359 0 0 Z " fill="#ED2229" transform="translate(1368.65625,580.23046875)"/>
<path d="M0 0 C1.66305311 0.4408073 3.32646391 0.88026742 4.99023438 1.31835938 C9.14739302 2.41617071 13.30038566 3.52892977 17.45254517 4.64547729 C29.4757764 7.87280687 41.51390701 10.99292601 53.625 13.875 C56.14723555 14.4800515 58.66937204 15.08551607 61.19140625 15.69140625 C62.95701904 16.11510498 62.95701904 16.11510498 64.75830078 16.54736328 C78.93766305 19.95990524 93.05019252 23.63955161 107.15966797 27.32861328 C110.44174749 28.18338777 113.72574442 29.02999491 117.01080322 29.87319946 C119.72499471 30.57187469 122.43712202 31.27833689 125.14886475 31.9864502 C127.07702201 32.48753168 129.00748322 32.97972104 130.93798828 33.47167969 C143.12693302 36.67121577 151.08273306 40.41801486 157.921875 51.34765625 C160.86079281 57.03333187 160.86105347 63.88932899 159.21875 69.9765625 C156.11384792 78.26464789 151.90696339 83.16247541 144.12109375 87.33203125 C133.57608333 92.06691071 122.14621141 88.93387677 111.59472656 85.90307617 C105.72724009 84.23809544 99.83141745 82.69517349 93.92578125 81.171875 C92.76874191 80.87270676 91.61170258 80.57353851 90.41960144 80.26530457 C75.94302921 76.52938987 61.45041833 72.85640143 46.95751953 69.18444824 C43.991492 68.4327725 41.02565367 67.68035178 38.05981922 66.92791462 C35.14006986 66.18721636 32.22024301 65.44682394 29.30039024 64.70653343 C27.93759469 64.36100898 26.57481247 64.01543193 25.21204567 63.66979408 C13.9384736 60.81097431 2.66248286 57.95953274 -8.6328125 55.1875 C-12.44782966 54.24841885 -16.25636854 53.28683126 -20.0625 52.3125 C-21.94388672 51.83490234 -21.94388672 51.83490234 -23.86328125 51.34765625 C-34.86256334 48.40585041 -43.04883348 45.38994724 -49.0625 35.3125 C-52.87952792 28.69205683 -52.92107795 22.8002904 -52.0625 15.3125 C-49.67526724 7.14506939 -44.45680639 1.46574799 -37.19140625 -2.78125 C-25.30404069 -8.11944326 -11.79801028 -3.2056727 0 0 Z " fill="#ED2128" transform="translate(140.0625,551.6875)"/>
<path d="M0 0 C6.97694761 4.67005364 11.95986094 11.46510138 17.1875 17.921875 C17.97511719 18.87964844 18.76273437 19.83742187 19.57421875 20.82421875 C22.50584459 24.39026275 25.41776375 27.97201765 28.32421875 31.55859375 C32.57798229 36.78988285 36.90761419 41.942996 41.3125 47.046875 C45.11177371 51.44978817 48.77265058 55.90747321 52.296875 60.53515625 C54.75518283 63.63851593 57.34462326 66.61825396 59.9375 69.609375 C64.56824441 74.95360244 68.98472017 80.42539879 73.31665039 86.01342773 C76.49152306 90.08947269 79.82696666 93.96684031 83.30078125 97.79296875 C86.0128597 100.85318149 88.52805343 104.05796606 91.0625 107.265625 C93.35187215 110.12734018 95.70190915 112.93117337 98.0625 115.734375 C116.95328923 138.42084059 116.95328923 138.42084059 116.53125 151.1171875 C115.61997136 158.5523928 112.68457105 164.47400068 107.07421875 169.44921875 C106.45160156 169.93519531 105.82898438 170.42117188 105.1875 170.921875 C104.63707031 171.35628906 104.08664062 171.79070312 103.51953125 172.23828125 C96.94688977 176.4024051 88.63618323 175.6813185 81.1875 174.921875 C75.59588867 173.37279156 72.01881998 170.22042912 68.1875 165.921875 C67.51976562 165.19871094 66.85203125 164.47554687 66.1640625 163.73046875 C61.68426789 158.84550501 57.45302576 153.82554016 53.3515625 148.62109375 C50.85313585 145.50482513 48.27799999 142.46160743 45.6875 139.421875 C41.77601445 134.8276647 37.96001941 130.17374642 34.2109375 125.4453125 C31.50628584 122.07232993 28.73362786 118.75799105 25.9597168 115.44189453 C23.26684243 112.22109595 20.59301847 108.98603026 17.9375 105.734375 C9.3689681 95.24322198 0.785799 84.76655638 -7.98657227 74.44482422 C-11.47025474 70.34086538 -14.89179909 66.19051843 -18.28515625 62.01171875 C-20.2787962 59.57436295 -22.28767316 57.15289469 -24.30859375 54.73828125 C-25.2370813 53.62404785 -25.2370813 53.62404785 -26.18432617 52.48730469 C-27.40330018 51.02510631 -28.6259135 49.56593133 -29.8527832 48.11035156 C-37.12122736 39.36805987 -42.39684505 31.75138793 -42.1953125 20.0625 C-41.29201633 12.65178451 -37.4453855 6.70982768 -31.8125 1.921875 C-30.6059375 0.8390625 -30.6059375 0.8390625 -29.375 -0.265625 C-20.43112775 -6.59177854 -9.02678882 -5.36938301 0 0 Z " fill="#ED2128" transform="translate(370.8125,192.078125)"/>
<path d="M0 0 C6.71759274 4.25216695 11.3765977 9.54353512 13.89453125 17.19921875 C14.15180016 20.50394726 14.15180016 20.50394726 14.16195679 24.33891296 C14.1664879 25.04666754 14.17101901 25.75442212 14.17568743 26.4836238 C14.1883228 28.84941955 14.18671163 31.21498484 14.18505859 33.58081055 C14.19104453 35.2795898 14.19785022 36.97836632 14.20541382 38.67713928 C14.22307781 43.28895236 14.22776946 47.90069122 14.22904539 52.51253486 C14.23046771 55.39632738 14.23473892 58.28010108 14.24003983 61.16388893 C14.25854381 71.23191143 14.26671027 81.29988098 14.26513672 91.36791992 C14.26393631 100.7399679 14.28501789 110.11178521 14.31662405 119.48377484 C14.34281805 127.53917796 14.35350265 135.59450592 14.3522259 143.64995128 C14.35171704 148.45693463 14.35735775 153.26371313 14.378582 158.07065392 C14.3980162 162.59581671 14.39805359 167.1205804 14.38354874 171.64575768 C14.38146571 173.30088894 14.38613118 174.95604551 14.39826965 176.61113358 C14.48019551 188.56184529 13.44775604 198.52853102 4.78125 207.50390625 C-0.83028621 212.54615618 -5.64313232 213.54032373 -13.16796875 213.63671875 C-14.17718384 213.6521875 -14.17718384 213.6521875 -15.20678711 213.66796875 C-21.4638453 213.55777964 -26.07848686 211.99050507 -30.79296875 207.82421875 C-31.55609375 206.95796875 -32.31921875 206.09171875 -33.10546875 205.19921875 C-33.80671875 204.41546875 -34.50796875 203.63171875 -35.23046875 202.82421875 C-39.25053198 197.19613023 -40.48018284 192.56667512 -40.4931488 185.69166565 C-40.49853434 184.96854043 -40.50391988 184.24541522 -40.50946862 183.50037712 C-40.52369465 181.0945571 -40.51665801 178.68929147 -40.50952148 176.28344727 C-40.51522786 174.55157023 -40.52219316 172.81969696 -40.53031921 171.08782959 C-40.54823599 166.39565343 -40.54708505 161.70366443 -40.54137683 157.01146436 C-40.5382829 153.09000556 -40.54437969 149.1685826 -40.55041558 145.2471289 C-40.56445427 135.99406788 -40.5629049 126.7410992 -40.55151367 117.48803711 C-40.54003229 107.95116706 -40.55410996 98.41457821 -40.58091015 88.87774521 C-40.60308095 80.68049917 -40.60970143 72.48334131 -40.60383373 64.28606743 C-40.60046636 59.39423667 -40.6028647 54.50258618 -40.62008476 49.61078072 C-40.63557387 45.01007038 -40.63157659 40.40977605 -40.61277962 35.80908203 C-40.60909921 34.12408972 -40.61218621 32.43906645 -40.62266541 30.75410271 C-40.6779804 21.12196595 -40.49962016 14.01623823 -34.46484375 6.02734375 C-24.88506903 -3.36641593 -12.52393314 -6.62211678 0 0 Z " fill="#ED2027" transform="translate(747.10546875,83.80078125)"/>
<path d="M0 0 C1 2 1 2 0.25 4.4375 C-0.95334548 6.90435824 -1.8762505 8.3010004 -4 10 C-4.99 10.33 -5.98 10.66 -7 11 C-9.2236068 12.9254644 -9.2236068 12.9254644 -10 16 C-11.65 16.33 -13.3 16.66 -15 17 C-12.51342936 13.06292982 -9.79995378 9.36177309 -6.9375 5.6875 C-6.26589844 4.82511719 -5.59429688 3.96273438 -4.90234375 3.07421875 C-3 1 -3 1 0 0 Z " fill="#FAF7F8" transform="translate(1091,347)"/>
<path d="M0 0 C0.84062397 3.09773244 1.08935201 5.78332751 1 9 C1.66 9 2.32 9 3 9 C2.65978036 12.17538332 1.97533396 13.02276865 -0.4375 15.25 C-3 17 -3 17 -5 17 C-5.33 18.32 -5.66 19.64 -6 21 C-7 19 -7 19 -6.47094727 17.02880859 C-6.17244873 16.24328613 -5.8739502 15.45776367 -5.56640625 14.6484375 C-5.24736328 13.79765625 -4.92832031 12.946875 -4.59960938 12.0703125 C-4.08624023 10.73613281 -4.08624023 10.73613281 -3.5625 9.375 C-3.05493164 8.02921875 -3.05493164 8.02921875 -2.53710938 6.65625 C-1.69817012 4.43483339 -0.8522225 2.21634729 0 0 Z " fill="#F0343C" transform="translate(355,640)"/>
<path d="M0 0 C0.99 0.33 1.98 0.66 3 1 C-0.9419417 5.88049925 -5.11950075 10.0580583 -10 14 C-10.97591583 10.61682513 -10.85856655 8.4342662 -10 5 C-8.68 5 -7.36 5 -6 5 C-3.3140387 4.27587495 -3.3140387 4.27587495 -1 3 C-0.67 2.01 -0.34 1.02 0 0 Z " fill="#F9EFED" transform="translate(449,497)"/>
<path d="M0 0 C3.3125 0.75 3.3125 0.75 6 2 C7.125 6.75 7.125 6.75 6 9 C2.2089881 7.55049545 -1.3874638 5.84827434 -5 4 C-2.875 1.875 -2.875 1.875 0 0 Z " fill="#F8EFF0" transform="translate(911,431)"/>
<path d="M0 0 C0 0.99 0 1.98 0 3 C-1.33333333 4.33333333 -2.66666667 5.66666667 -4 7 C-4 7.99 -4 8.98 -4 10 C-4.66 10 -5.32 10 -6 10 C-6.268125 10.5775 -6.53625 11.155 -6.8125 11.75 C-8.01719859 14.0325868 -9.40798115 15.9737942 -11 18 C-11.66 17.34 -12.32 16.68 -13 16 C-13.33 16.66 -13.66 17.32 -14 18 C-14.66 17.67 -15.32 17.34 -16 17 C-10.94647258 11.03651266 -5.58288259 5.46894621 0 0 Z " fill="#EE2B34" transform="translate(443,507)"/>
<path d="M0 0 C2.97 0.99 5.94 1.98 9 3 C9.33 4.65 9.66 6.3 10 8 C9.34 8 8.68 8 8 8 C7.67 8.66 7.34 9.32 7 10 C5.87411986 9.04270084 4.7493285 8.08412105 3.625 7.125 C2.99851562 6.59132812 2.37203125 6.05765625 1.7265625 5.5078125 C0.44163349 4.38567993 -0.79371975 3.20628025 -2 2 C-1.34 1.34 -0.68 0.68 0 0 Z " fill="#F9F6F6" transform="translate(371,189)"/>
<path d="M0 0 C7.06253794 0.9866781 12.8342314 2.3462112 19 6 C19.33 6.66 19.66 7.32 20 8 C14.43298969 8.37113402 14.43298969 8.37113402 12.25 6.5 C11.63125 5.7575 11.63125 5.7575 11 5 C10.34 5 9.68 5 9 5 C9 4.34 9 3.68 9 3 C4.545 2.01 4.545 2.01 0 1 C0 0.67 0 0.34 0 0 Z " fill="#EE3037" transform="translate(270,586)"/>
<path d="M0 0 C0.66 0.33 1.32 0.66 2 1 C2 1.66 2 2.32 2 3 C2.33 2.34 2.66 1.68 3 1 C3.99 1 4.98 1 6 1 C4.5741914 4.45195767 2.90253666 6.1014256 -0.125 8.25 C-0.84945313 8.77078125 -1.57390625 9.2915625 -2.3203125 9.828125 C-2.87460937 10.21484375 -3.42890625 10.6015625 -4 11 C-4.33 10.01 -4.66 9.02 -5 8 C-4.01 7.67 -3.02 7.34 -2 7 C-0.77030122 3.48809191 -0.77030122 3.48809191 0 0 Z " fill="#F7EEED" transform="translate(472,473)"/>
<path d="M0 0 C1.47006623 4.41019868 0.43537323 7.69388031 -1 12 C-3.31 12 -5.62 12 -8 12 C-7.59007812 11.46890625 -7.18015625 10.9378125 -6.7578125 10.390625 C-6.21898437 9.68421875 -5.68015625 8.9778125 -5.125 8.25 C-4.59132813 7.55390625 -4.05765625 6.8578125 -3.5078125 6.140625 C-2.10761086 4.15277397 -1.02144735 2.20156614 0 0 Z " fill="#F8E4E4" transform="translate(758,281)"/>
<path d="M0 0 C5.78461538 4.43076923 5.78461538 4.43076923 6.875 7.3125 C6.936875 8.1478125 6.936875 8.1478125 7 9 C6.01 8.67 5.02 8.34 4 8 C4 8.66 4 9.32 4 10 C3.01 10 2.02 10 1 10 C1.04125 9.21625 1.0825 8.4325 1.125 7.625 C1.28728734 4.83883881 1.28728734 4.83883881 -1 3 C-0.67 2.01 -0.34 1.02 0 0 Z " fill="#F02A33" transform="translate(1166,207)"/>
<path d="M0 0 C-14.09678068 6.45319293 -14.09678068 6.45319293 -19 5 C-4.90321932 -1.45319293 -4.90321932 -1.45319293 0 0 Z " fill="#F04149" transform="translate(540,630)"/>
<path d="M0 0 C1.125 3.75 1.125 3.75 0 6 C0.66 6.33 1.32 6.66 2 7 C1.34 8.32 0.68 9.64 0 11 C-0.33 10.67 -0.66 10.34 -1 10 C-2.32 11.32 -3.64 12.64 -5 14 C-3.45730076 9.27934033 -1.92205381 4.58335908 0 0 Z " fill="#F03E45" transform="translate(363,621)"/>
<path d="M0 0 C-1.36125 0.37125 -1.36125 0.37125 -2.75 0.75 C-6.10351489 2.03981342 -7.67708236 3.31971042 -10 6 C-10.33 5.34 -10.66 4.68 -11 4 C-13.52733235 3.34444881 -13.52733235 3.34444881 -16 3 C-11.08294543 0.13171817 -5.53605896 -1.7423757 0 0 Z " fill="#F15B61" transform="translate(1292,590)"/>
<path d="M0 0 C0.53625 0.721875 1.0725 1.44375 1.625 2.1875 C4.21454469 5.25406608 6.87777554 7.48864554 10 10 C10.66 10.66 11.32 11.32 12 12 C5.52864939 11.51159618 5.52864939 11.51159618 3.0625 9.125 C2 7 2 7 2 4 C1.34 4 0.68 4 0 4 C0 2.68 0 1.36 0 0 Z " fill="#F9E3E2" transform="translate(1170,652)"/>
<path d="M0 0 C2.64 0 5.28 0 8 0 C-0.44827586 7 -0.44827586 7 -4 7 C-3.67 5.68 -3.34 4.36 -3 3 C-2.34 3 -1.68 3 -1 3 C-0.67 2.01 -0.34 1.02 0 0 Z " fill="#F9EEED" transform="translate(521,441)"/>
<path d="M0 0 C4.72224516 1.53472968 9.35855331 3.23945126 14 5 C11 6 11 6 8 5 C7.67 5.66 7.34 6.32 7 7 C6.01 6.67 5.02 6.34 4 6 C3.3125 3.9375 3.3125 3.9375 3 2 C2.01 2 1.02 2 0 2 C0 1.34 0 0.68 0 0 Z " fill="#EF3E45" transform="translate(857,413)"/>
<path d="M0 0 C3.26008643 3.16952847 6.22237877 6.39937989 9 10 C8.67 10.66 8.34 11.32 8 12 C5.5 10.6875 5.5 10.6875 3 9 C3 8.01 3 7.02 3 6 C2.34 6 1.68 6 1 6 C0.67 4.02 0.34 2.04 0 0 Z " fill="#EC343D" transform="translate(475,317)"/>
<path d="M0 0 C-0.66 1.32 -1.32 2.64 -2 4 C-3.65 3.67 -5.3 3.34 -7 3 C-7.33 3.66 -7.66 4.32 -8 5 C-10.64 5 -13.28 5 -16 5 C-13.39680887 3.26453924 -11.47732763 2.34824767 -8.5625 1.375 C-7.80066406 1.11460937 -7.03882813 0.85421875 -6.25390625 0.5859375 C-4 0 -4 0 0 0 Z " fill="#EF4D54" transform="translate(614,406)"/>
<path d="M0 0 C0.33 0.66 0.66 1.32 1 2 C-0.5039544 4.79305817 -2.24016054 7.36024081 -4 10 C-4.33 10.99 -4.66 11.98 -5 13 C-6.65 13.33 -8.3 13.66 -10 14 C-6.86427316 9.17580486 -3.4851448 4.57715684 0 0 Z " fill="#FAE1E1" transform="translate(1086,350)"/>
<path d="M0 0 C0.66 0.33 1.32 0.66 2 1 C2.3125 3.1875 2.3125 3.1875 2 6 C-0.70889796 9.23562812 -3.21511693 11.22886882 -7 13 C-6.66226563 12.48050781 -6.32453125 11.96101562 -5.9765625 11.42578125 C-3.60108299 7.71151993 -1.44237185 4.19599085 0 0 Z " fill="#EE333B" transform="translate(607,603)"/>
<path d="M0 0 C2.38672669 2.96283313 4.7353371 5.94270509 7 9 C4 10 4 10 1 9 C0.67 6.03 0.34 3.06 0 0 Z " fill="#F8E9E8" transform="translate(91,587)"/>
<path d="M0 0 C2 3 2 3 2 7 C1.01 7 0.02 7 -1 7 C-1 10.96 -1 14.92 -1 19 C-1.33 19 -1.66 19 -2 19 C-2.05428973 16.77110504 -2.09292338 14.54182529 -2.125 12.3125 C-2.15980469 10.45044922 -2.15980469 10.45044922 -2.1953125 8.55078125 C-2.01032021 5.18762143 -1.45767895 3.0014413 0 0 Z " fill="#F15057" transform="translate(90,562)"/>
<path d="M0 0 C1.32 0 2.64 0 4 0 C4 1.65 4 3.3 4 5 C4.66 5 5.32 5 6 5 C5.34 6.32 4.68 7.64 4 9 C2.35 6.69 0.7 4.38 -1 2 C-0.67 1.34 -0.34 0.68 0 0 Z " fill="#F9F3F3" transform="translate(1010,508)"/>
<path d="M0 0 C2.00993705 3.01490557 2.72623341 5.2149927 3.625 8.6875 C3.88539062 9.68136719 4.14578125 10.67523437 4.4140625 11.69921875 C4.60742188 12.45847656 4.80078125 13.21773437 5 14 C4.01 13.01 3.02 12.02 2 11 C1.34 11.99 0.68 12.98 0 14 C0 9.38 0 4.76 0 0 Z " fill="#EF444C" transform="translate(1097,652)"/>
<path d="M0 0 C0.66 0.99 1.32 1.98 2 3 C1.67 3.66 1.34 4.32 1 5 C0.34 5 -0.32 5 -1 5 C-1.33 6.32 -1.66 7.64 -2 9 C-3.65 9.33 -5.3 9.66 -7 10 C-6.02223933 8.51990357 -5.0427506 7.04094856 -4.0625 5.5625 C-3.51722656 4.73878906 -2.97195313 3.91507813 -2.41015625 3.06640625 C-1 1 -1 1 0 0 Z " fill="#F04149" transform="translate(1123,215)"/>
<path d="M0 0 C-1.65 1.65 -3.3 3.3 -5 5 C-5 4.34 -5 3.68 -5 3 C-5.99 3.495 -5.99 3.495 -7 4 C-8.99960012 4.039992 -11.00047242 4.04346799 -13 4 C-10.56272708 2.37515139 -8.62713877 1.34310925 -5.9375 0.3125 C-5.24527344 0.04050781 -4.55304687 -0.23148437 -3.83984375 -0.51171875 C-2 -1 -2 -1 0 0 Z " fill="#F0525A" transform="translate(594,413)"/>
<path d="M0 0 C0.33 0.99 0.66 1.98 1 3 C1.66 3 2.32 3 3 3 C3.66 5.31 4.32 7.62 5 10 C4.01 10 3.02 10 2 10 C0.25 7.8125 0.25 7.8125 -1 5 C-0.6875 2.1875 -0.6875 2.1875 0 0 Z " fill="#ED2E33" transform="translate(1023,360)"/>
<path d="M0 0 C0.66 1.32 1.32 2.64 2 4 C-0.52788007 6.79872437 -2.20411134 8.45773019 -6 9 C-4.16172132 5.84866512 -2.24027294 2.88035092 0 0 Z " fill="#F8E0E0" transform="translate(1108,322)"/>
<path d="M0 0 C0.33 0 0.66 0 1 0 C1.375 2.1875 1.375 2.1875 1 5 C-0.83961648 6.99022836 -2.79186148 8.38989899 -5 10 C-5.66 9.67 -6.32 9.34 -7 9 C-5.85793642 7.49712782 -4.71125043 5.99776716 -3.5625 4.5 C-2.92441406 3.6646875 -2.28632812 2.829375 -1.62890625 1.96875 C-0.82259766 0.99421875 -0.82259766 0.99421875 0 0 Z " fill="#F7DADA" transform="translate(1120,307)"/>
<path d="M0 0 C0.99 0.33 1.98 0.66 3 1 C2.04578192 2.14926266 1.08647955 3.29430541 0.125 4.4375 C-0.40867187 5.07558594 -0.94234375 5.71367187 -1.4921875 6.37109375 C-3 8 -3 8 -5 9 C-4.67 7.35 -4.34 5.7 -4 4 C-3.01 3.67 -2.02 3.34 -1 3 C-0.67 2.01 -0.34 1.02 0 0 Z " fill="#F8E4E4" transform="translate(449,497)"/>
<path d="M0 0 C0.33 0.66 0.66 1.32 1 2 C0.67 2.66 0.34 3.32 0 4 C-0.99 4.33 -1.98 4.66 -3 5 C-3.73323796 7.01508358 -3.73323796 7.01508358 -4 9 C-5.98 9.33 -7.96 9.66 -10 10 C-3.84965831 2.51708428 -3.84965831 2.51708428 0 0 Z " fill="#EF3F47" transform="translate(463,488)"/>
<path d="M0 0 C0.66 0.66 1.32 1.32 2 2 C0.35 4.64 -1.3 7.28 -3 10 C-4.32 9.34 -5.64 8.68 -7 8 C-4.69 5.36 -2.38 2.72 0 0 Z " fill="#FAE3E4" transform="translate(483,354)"/>
<path d="M0 0 C4.875 4.75 4.875 4.75 6 7 C4.02 7 2.04 7 0 7 C0 6.34 0 5.68 0 5 C-0.66 4.67 -1.32 4.34 -2 4 C-1.34 2.68 -0.68 1.36 0 0 Z " fill="#F8E7E6" transform="translate(336,234)"/>
<path d="M0 0 C1.24523437 0.02707031 2.49046875 0.05414063 3.7734375 0.08203125 C4.71445312 0.11683594 5.65546875 0.15164062 6.625 0.1875 C6.625 0.5175 6.625 0.8475 6.625 1.1875 C5.72136719 1.23648438 4.81773437 1.28546875 3.88671875 1.3359375 C2.70722656 1.41070312 1.52773438 1.48546875 0.3125 1.5625 C-1.44513672 1.66691406 -1.44513672 1.66691406 -3.23828125 1.7734375 C-6.53199887 1.97363747 -6.53199887 1.97363747 -9.375 4.1875 C-11.5625 3.8125 -11.5625 3.8125 -13.375 3.1875 C-8.70450485 0.4498713 -5.38700281 -0.15246234 0 0 Z " fill="#F15D62" transform="translate(733.375,80.8125)"/>
<path d="M0 0 C0.66 0.99 1.32 1.98 2 3 C0.92807816 4.3218362 -0.15802695 5.63217927 -1.25 6.9375 C-1.85328125 7.66839844 -2.4565625 8.39929688 -3.078125 9.15234375 C-5.10741134 11.10326334 -6.254407 11.61731779 -9 12 C-8.60167969 11.55269531 -8.20335937 11.10539063 -7.79296875 10.64453125 C-4.82015875 7.25220061 -2.1717806 3.98159776 0 0 Z " fill="#F9DFDF" transform="translate(1377,614)"/>
<path d="M0 0 C-1.1858237 3.37503669 -2.27573689 5.64722731 -5 8 C-5.99 7.67 -6.98 7.34 -8 7 C-7.525625 6.566875 -7.05125 6.13375 -6.5625 5.6875 C-4.76313043 3.97690387 -4.76313043 3.97690387 -4 1 C-2 0 -2 0 0 0 Z " fill="#EE333B" transform="translate(1376,616)"/>
<path d="M0 0 C0.66 0 1.32 0 2 0 C2 1.32 2 2.64 2 4 C3.65 4 5.3 4 7 4 C6.67 4.99 6.34 5.98 6 7 C5.01 7.33 4.02 7.66 3 8 C0.9375 5.6875 0.9375 5.6875 -1 3 C-0.67 2.01 -0.34 1.02 0 0 Z " fill="#F9F2F0" transform="translate(1047,553)"/>
<path d="M0 0 C1.60031344 3.20062687 0.03173691 5.72271806 -1 9 C-1.99 8.34 -2.98 7.68 -4 7 C-4.33 7.66 -4.66 8.32 -5 9 C-5.66 8.67 -6.32 8.34 -7 8 C-4.69 5.36 -2.38 2.72 0 0 Z " fill="#EE3D44" transform="translate(434,516)"/>
<path d="M0 0 C0.65234375 1.765625 0.65234375 1.765625 1 4 C0.00390625 5.921875 0.00390625 5.921875 -1.4375 7.75 C-1.91058594 8.36359375 -2.38367187 8.9771875 -2.87109375 9.609375 C-3.24363281 10.06828125 -3.61617187 10.5271875 -4 11 C-4.66 10.01 -5.32 9.02 -6 8 C-5.38125 7.236875 -4.7625 6.47375 -4.125 5.6875 C-1.94402948 3.00374191 -1.94402948 3.00374191 0 0 Z " fill="#EE2D34" transform="translate(1134,285)"/>
<path d="M0 0 C1.875 0.25 1.875 0.25 4 1 C5.25 3.0625 5.25 3.0625 6 5 C4.35 5.33 2.7 5.66 1 6 C0.67 4.02 0.34 2.04 0 0 Z " fill="#EE373D" transform="translate(1024,530)"/>
<path d="M0 0 C0.99 0.495 0.99 0.495 2 1 C2.99 0.67 3.98 0.34 5 0 C5 3 5 3 4 5 C4.66 5.33 5.32 5.66 6 6 C5.67 6.99 5.34 7.98 5 9 C0 3.375 0 3.375 0 0 Z " fill="#EC2931" transform="translate(422,335)"/>
<path d="M0 0 C0.66 0.33 1.32 0.66 2 1 C2.40729228 3.32156597 2.74438677 5.6568787 3 8 C2.01 8 1.02 8 0 8 C-1.125 6.25 -1.125 6.25 -2 4 C-1.125 1.75 -1.125 1.75 0 0 Z " fill="#F8F4F3" transform="translate(456,286)"/>
<path d="M0 0 C0.99 0 1.98 0 3 0 C3.33 1.32 3.66 2.64 4 4 C1.525 5.485 1.525 5.485 -1 7 C-1.625 5.1875 -1.625 5.1875 -2 3 C-1.34 2.01 -0.68 1.02 0 0 Z " fill="#F9EEEF" transform="translate(296,627)"/>
<path d="M0 0 C4.875 4.75 4.875 4.75 6 7 C4.68 7.33 3.36 7.66 2 8 C2 7.34 2 6.68 2 6 C1.34 6 0.68 6 0 6 C0 4.02 0 2.04 0 0 Z " fill="#EF383F" transform="translate(1040,548)"/>
<path d="M0 0 C1.65 1.65 3.3 3.3 5 5 C4.67 5.99 4.34 6.98 4 8 C2.68 7.34 1.36 6.68 0 6 C0 4.02 0 2.04 0 0 Z " fill="#EE383F" transform="translate(1032,537)"/>
<path d="M0 0 C0.66 0.33 1.32 0.66 2 1 C-2.18461538 5.92307692 -2.18461538 5.92307692 -6.3125 6.3125 C-7.199375 6.209375 -8.08625 6.10625 -9 6 C-6.45368965 3.02930459 -3.57769851 1.5224249 0 0 Z " fill="#EF5259" transform="translate(551,429)"/>
<path d="M0 0 C4.875 4.75 4.875 4.75 6 7 C4.68 7 3.36 7 2 7 C1.34 7.66 0.68 8.32 0 9 C0.33 7.02 0.66 5.04 1 3 C0.34 3 -0.32 3 -1 3 C-0.67 2.01 -0.34 1.02 0 0 Z " fill="#EE3A42" transform="translate(392,216)"/>
<path d="M0 0 C1.07396066 4.29584263 1.07329796 7.60212211 1 12 C0.67 11.34 0.34 10.68 0 10 C-0.99 10.33 -1.98 10.66 -3 11 C-2.01 7.37 -1.02 3.74 0 0 Z " fill="#EF4D54" transform="translate(347,662)"/>
<path d="M0 0 C0.66 0.66 1.32 1.32 2 2 C0.88333826 5.34998521 0.25305075 5.79340222 -2.5625 7.6875 C-3.52349609 8.34298828 -3.52349609 8.34298828 -4.50390625 9.01171875 C-4.99761719 9.33785156 -5.49132812 9.66398438 -6 10 C-4.6302836 6.00499382 -2.74277578 3.19990508 0 0 Z " fill="#EE353C" transform="translate(484,663)"/>
<path d="M0 0 C0.99 0.33 1.98 0.66 3 1 C1.75453595 4.73639216 0.36595047 5.18756513 -3 7 C-2.25 2.25 -2.25 2.25 0 0 Z " fill="#F7F1F0" transform="translate(1178,613)"/>
<path d="M0 0 C0.66 0.99 1.32 1.98 2 3 C1.34 3.66 0.68 4.32 0 5 C0.33 5.66 0.66 6.32 1 7 C-0.32 8.32 -1.64 9.64 -3 11 C-4 8 -4 8 -3.22265625 5.95703125 C-2.83980469 5.24933594 -2.45695312 4.54164063 -2.0625 3.8125 C-1.68222656 3.09707031 -1.30195313 2.38164063 -0.91015625 1.64453125 C-0.60980469 1.10183594 -0.30945313 0.55914063 0 0 Z " fill="#EF4049" transform="translate(371,605)"/>
<path d="M0 0 C0.99 0.33 1.98 0.66 3 1 C0.03 4.96 0.03 4.96 -3 9 C-3.66 8.34 -4.32 7.68 -5 7 C-3.35 4.69 -1.7 2.38 0 0 Z " fill="#F8EBE9" transform="translate(411,539)"/>
<path d="M0 0 C1 3 1 3 0.375 5.125 C-1 7 -1 7 -3.625 7.75 C-4.800625 7.87375 -4.800625 7.87375 -6 8 C-4.02 5.36 -2.04 2.72 0 0 Z " fill="#EE424A" transform="translate(1088,260)"/>
<path d="M0 0 C2.475 0.99 2.475 0.99 5 2 C5 2.99 5 3.98 5 5 C4.34 5 3.68 5 3 5 C2.67 5.66 2.34 6.32 2 7 C1.01 5.02 0.02 3.04 -1 1 C-0.67 0.67 -0.34 0.34 0 0 Z " fill="#FBF2F2" transform="translate(1055,565)"/>
<path d="M0 0 C0.99 0.66 1.98 1.32 3 2 C2.67 3.32 2.34 4.64 2 6 C0.68 6.33 -0.64 6.66 -2 7 C-2 3 -2 3 0 0 Z " fill="#EF333B" transform="translate(401,556)"/>
<path d="M0 0 C2.92879371 0.62759865 5.36095629 1.58622659 8 3 C8 3.99 8 4.98 8 6 C5.0280615 4.87548273 2.66559313 3.77706209 0 2 C0 1.34 0 0.68 0 0 Z " fill="#F03339" transform="translate(1030,374)"/>
<path d="M0 0 C0.66 0.99 1.32 1.98 2 3 C1.01 3.33 0.02 3.66 -1 4 C-2.20882096 6.00016466 -2.20882096 6.00016466 -3 8 C-3.99 8 -4.98 8 -6 8 C-4.02 5.36 -2.04 2.72 0 0 Z " fill="#F9DFDE" transform="translate(1075,364)"/>
<path d="M0 0 C0.99 0.99 1.98 1.98 3 3 C1.60804085 5.7839183 -0.15575779 5.97898997 -3 7 C-3 3.48283697 -2.17554415 2.62878252 0 0 Z " fill="#ED3039" transform="translate(1035,327)"/>
<path d="M0 0 C2.0625 0.4375 2.0625 0.4375 4 1 C3.34 2.65 2.68 4.3 2 6 C1.01 6 0.02 6 -1 6 C-1.042721 4.33388095 -1.04063832 2.66617115 -1 1 C-0.67 0.67 -0.34 0.34 0 0 Z " fill="#EB292F" transform="translate(1097,329)"/>
<path d="M0 0 C0.66 0.66 1.32 1.32 2 2 C0.35 4.31 -1.3 6.62 -3 9 C-3.66 8.34 -4.32 7.68 -5 7 C-1.125 1.125 -1.125 1.125 0 0 Z " fill="#FAF0F0" transform="translate(1044,312)"/>
<path d="M0 0 C0.99 0.33 1.98 0.66 3 1 C1.75023244 4.65316671 1.32901247 5.78065836 -2 8 C-1.125 1.125 -1.125 1.125 0 0 Z " fill="#EB2C33" transform="translate(755,281)"/>
<path d="M0 0 C2.18975773 3.28463659 2.99806563 6.20696275 4 10 C3.01 10 2.02 10 1 10 C1.33 9.01 1.66 8.02 2 7 C1.01 6.67 0.02 6.34 -1 6 C-0.67 4.02 -0.34 2.04 0 0 Z " fill="#F9E0DE" transform="translate(706,274)"/>
<path d="M0 0 C0.33 0.66 0.66 1.32 1 2 C-0.98 4.31 -2.96 6.62 -5 9 C-5.66 8.67 -6.32 8.34 -7 8 C-4.69 5.36 -2.38 2.72 0 0 Z " fill="#F58D8E" transform="translate(443,623)"/>
<path d="M0 0 C1.65 0.99 3.3 1.98 5 3 C4.01 3.495 4.01 3.495 3 4 C2.67 4.66 2.34 5.32 2 6 C0.68 5.34 -0.64 4.68 -2 4 C-1.34 2.68 -0.68 1.36 0 0 Z " fill="#EE2B34" transform="translate(972,478)"/>
<path d="M0 0 C1.98 0.99 1.98 0.99 4 2 C4 2.66 4 3.32 4 4 C3.34 4 2.68 4 2 4 C2.33 4.66 2.66 5.32 3 6 C3.039992 7.99960012 3.04346799 10.00047242 3 12 C2.67 12 2.34 12 2 12 C1.34 8.04 0.68 4.08 0 0 Z " fill="#F9E9E6" transform="translate(1111,699)"/>
<path d="M0 0 C0 1.65 0 3.3 0 5 C0.66 5 1.32 5 2 5 C1.67 5.66 1.34 6.32 1 7 C-0.98 5.35 -2.96 3.7 -5 2 C-1.125 0 -1.125 0 0 0 Z " fill="#EB363D" transform="translate(99,590)"/>
<path d="M0 0 C0 0.66 0 1.32 0 2 C-0.66 2 -1.32 2 -2 2 C-2 2.66 -2 3.32 -2 4 C-3.98 4.99 -3.98 4.99 -6 6 C-6 5.34 -6 4.68 -6 4 C-6.66 3.67 -7.32 3.34 -8 3 C-2.25 0 -2.25 0 0 0 Z " fill="#F7D8D8" transform="translate(476,363)"/>
<path d="M0 0 C0.33 0.66 0.66 1.32 1 2 C-0.98 4.64 -2.96 7.28 -5 10 C-5.66 9.67 -6.32 9.34 -7 9 C-4.69 6.03 -2.38 3.06 0 0 Z " fill="#FADEDD" transform="translate(1165,250)"/>
<path d="M0 0 C0.66 1.32 1.32 2.64 2 4 C0.35 5.65 -1.3 7.3 -3 9 C-3 8.34 -3 7.68 -3 7 C-3.66 6.67 -4.32 6.34 -5 6 C-3.68 5.67 -2.36 5.34 -1 5 C-0.67 3.35 -0.34 1.7 0 0 Z " fill="#ED3137" transform="translate(1162,249)"/>
<path d="M0 0 C0.33 0.99 0.66 1.98 1 3 C1.66 3.33 2.32 3.66 3 4 C1.68 4.99 0.36 5.98 -1 7 C-1.66 6.67 -2.32 6.34 -3 6 C-2 4 -1 2 0 0 Z " fill="#FAF3F1" transform="translate(1105,232)"/>
<path d="M0 0 C0.33 0 0.66 0 1 0 C1.33 1.98 1.66 3.96 2 6 C1.01 6.33 0.02 6.66 -1 7 C-1.73323796 9.01508358 -1.73323796 9.01508358 -2 11 C-3 9 -3 9 -2.44140625 6.8359375 C-2.15136719 6.02382813 -1.86132812 5.21171875 -1.5625 4.375 C-1.27503906 3.55773437 -0.98757813 2.74046875 -0.69140625 1.8984375 C-0.46324219 1.27195312 -0.23507812 0.64546875 0 0 Z " fill="#F0555D" transform="translate(351,650)"/>
<path d="M0 0 C2.125 0.9375 2.125 0.9375 4 2 C3.67 3.32 3.34 4.64 3 6 C1.35 4.35 -0.3 2.7 -2 1 C-1.34 0.67 -0.68 0.34 0 0 Z " fill="#FAF5F5" transform="translate(1005,503)"/>
<path d="M0 0 C0.33 0.99 0.66 1.98 1 3 C-0.40445835 5.2636564 -2.1967913 7.0208685 -4 9 C-4.66 8.67 -5.32 8.34 -6 8 C-4.02 5.36 -2.04 2.72 0 0 Z " fill="#F8DCDB" transform="translate(1138,284)"/>
<path d="M0 0 C1.65 0.99 3.3 1.98 5 3 C4.34 4.32 3.68 5.64 3 7 C1.68 5.68 0.36 4.36 -1 3 C-0.67 2.01 -0.34 1.02 0 0 Z " fill="#F8EFED" transform="translate(447,279)"/>
<path d="M0 0 C1.125 3.75 1.125 3.75 0 6 C-1.64363134 6.72159424 -3.31050386 7.39351421 -5 8 C-3.38731308 5.28775382 -1.75098126 2.62647188 0 0 Z " fill="#F9E1E0" transform="translate(1171,242)"/>
<path d="M0 0 C1.65 1.65 3.3 3.3 5 5 C4.01 5.495 4.01 5.495 3 6 C1.5 4.6875 1.5 4.6875 0 3 C0 2.01 0 1.02 0 0 Z M-2 3 C-1.01 3.33 -0.02 3.66 1 4 C0.67 4.66 0.34 5.32 0 6 C-0.66 6 -1.32 6 -2 6 C-2 5.01 -2 4.02 -2 3 Z " fill="#EC3A41" transform="translate(409,237)"/>
<path d="M0 0 C1.32 0.66 2.64 1.32 4 2 C3.67 2.99 3.34 3.98 3 5 C0.525 4.01 0.525 4.01 -2 3 C-1.34 2.01 -0.68 1.02 0 0 Z " fill="#F8E8E8" transform="translate(371,189)"/>
<path d="M0 0 C1.32 0.33 2.64 0.66 4 1 C4.33 1.99 4.66 2.98 5 4 C4.34 4 3.68 4 3 4 C2.67 5.32 2.34 6.64 2 8 C1.34 5.36 0.68 2.72 0 0 Z " fill="#F9EAEA" transform="translate(297,601)"/>
<path d="M0 0 C4 4.75 4 4.75 4 7 C1.525 6.01 1.525 6.01 -1 5 C-0.67 3.35 -0.34 1.7 0 0 Z " fill="#F13842" transform="translate(1064,583)"/>
<path d="M0 0 C4 4.75 4 4.75 4 7 C3.01 7.33 2.02 7.66 1 8 C-0.35439668 5.29120665 -0.06501451 2.99066732 0 0 Z " fill="#ED353E" transform="translate(1058,573)"/>
<path d="M0 0 C0.66 0 1.32 0 2 0 C1.375 1.875 1.375 1.875 0 4 C-3.125 5.25 -3.125 5.25 -6 6 C-4 4 -2 2 0 0 Z " fill="#F1494E" transform="translate(494,463)"/>
<path d="M0 0 C0.99 0.33 1.98 0.66 3 1 C3 1.66 3 2.32 3 3 C3.66 3.33 4.32 3.66 5 4 C3.68 5.32 2.36 6.64 1 8 C0.67 7.01 0.34 6.02 0 5 C0.66 4.67 1.32 4.34 2 4 C1.34 2.68 0.68 1.36 0 0 Z " fill="#EC3037" transform="translate(479,350)"/>
<path d="M0 0 C0.33 0.66 0.66 1.32 1 2 C0.06553465 4.03144641 -0.93224776 6.03533587 -2 8 C-2.99 8 -3.98 8 -5 8 C-3.62845496 5.04590299 -2.01136276 2.55991624 0 0 Z " fill="#F9D9DA" transform="translate(1131,293)"/>
<path d="M0 0 C0.33 0.66 0.66 1.32 1 2 C-0.8125 5 -0.8125 5 -3 8 C-3.99 8 -4.98 8 -6 8 C-4.02 5.36 -2.04 2.72 0 0 Z " fill="#EE3E47" transform="translate(1072,280)"/>
<path d="M0 0 C1.33332095 2.6666419 0.67102033 4.16680303 0 7 C-3 7 -3 7 -5 6 C-3.35 4.02 -1.7 2.04 0 0 Z " fill="#F9E2DF" transform="translate(1144,277)"/>
<path d="M0 0 C0.33 0.99 0.66 1.98 1 3 C-0.40445835 5.2636564 -2.1967913 7.0208685 -4 9 C-4.66 8.67 -5.32 8.34 -6 8 C-4.02 5.36 -2.04 2.72 0 0 Z " fill="#EF464E" transform="translate(1097,248)"/>
<path d="M0 0 C0.99 0.33 1.98 0.66 3 1 C3.33 1.99 3.66 2.98 4 4 C3.34 4.66 2.68 5.32 2 6 C1.01 5.01 0.02 4.02 -1 3 C-0.67 2.01 -0.34 1.02 0 0 Z " fill="#F5E9E7" transform="translate(422,249)"/>
<path d="M0 0 C0.33 0.66 0.66 1.32 1 2 C-0.8125 5 -0.8125 5 -3 8 C-3.99 8 -4.98 8 -6 8 C-4.02 5.36 -2.04 2.72 0 0 Z " fill="#F04C54" transform="translate(1112,229)"/>
<path d="M0 0 C1.32 1.32 2.64 2.64 4 4 C1 5 1 5 -2 4 C-2 3.01 -2 2.02 -2 1 C-1.34 0.67 -0.68 0.34 0 0 Z " fill="#ED393F" transform="translate(378,199)"/>
</svg>
